<?xml version="1.0" encoding="UTF-8" standalone="no"?>
<svg
   xmlns:dc="http://purl.org/dc/elements/1.1/"
   xmlns:cc="http://creativecommons.org/ns#"
   xmlns:rdf="http://www.w3.org/1999/02/22-rdf-syntax-ns#"
   xmlns:svg="http://www.w3.org/2000/svg"
   xmlns="http://www.w3.org/2000/svg"
   xmlns:sodipodi="http://sodipodi.sourceforge.net/DTD/sodipodi-0.dtd"
   xmlns:inkscape="http://www.inkscape.org/namespaces/inkscape"
   viewBox="0 0 16 16"
   width="16px"
   height="16px"
   id="svg2"
   version="1.1"
   inkscape:version="0.91 r13725"
   sodipodi:docname="icon-xing.svg">
  <metadata
     id="metadata10">
    <rdf:RDF>
      <cc:Work
         rdf:about="">
        <dc:format>image/svg+xml</dc:format>
        <dc:type
           rdf:resource="http://purl.org/dc/dcmitype/StillImage" />
      </cc:Work>
    </rdf:RDF>
  </metadata>
  <defs
     id="defs8" />
  <sodipodi:namedview
     pagecolor="#ffffff"
     bordercolor="#666666"
     borderopacity="1"
     objecttolerance="10"
     gridtolerance="10"
     guidetolerance="10"
     inkscape:pageopacity="0"
     inkscape:pageshadow="2"
     inkscape:window-width="1020"
     inkscape:window-height="729"
     id="namedview6"
     showgrid="false"
     inkscape:zoom="14.75"
     inkscape:cx="8"
     inkscape:cy="8"
     inkscape:window-x="0"
     inkscape:window-y="18"
     inkscape:window-maximized="0"
     inkscape:current-layer="svg2" />
  <path
     style="fill:#828282;stroke:#828282;stroke-width:0.11726613"
     d="m 9.7763654,15.718033 c -0.0046,-0.0075 -0.04786,-0.08291 -0.09602,-0.167633 C 9.5913314,15.393825 9.1572714,14.632784 8.6518864,13.74721 8.3353724,13.192588 7.9172964,12.459787 7.5748853,11.859448 7.4469727,11.635182 7.1887605,11.182572 7.0010785,10.853648 6.3653721,9.7395263 6.3261581,9.6704754 6.3272148,9.6670372 6.3278171,9.665121 6.5952617,9.1960422 6.9215864,8.6245787 7.2479107,8.053115 7.7492661,7.175079 8.0357074,6.6733874 8.3221494,6.1716948 8.8405824,5.2637571 9.1877804,4.6557464 9.9120494,3.387411 10.515847,2.3298687 11.205436,1.1218551 c 0.265528,-0.46514461 0.484773,-0.84776161 0.487215,-0.85025811 0.0025,-0.00252 0.816102,-0.00383 1.808135,-0.00301 l 1.803697,0.00153 -0.275942,0.4832663 C 14.876772,1.0191795 14.493398,1.6906194 14.176596,2.2454705 c -0.3168,0.5548516 -0.860063,1.5062835 -1.207251,2.114294 -0.347187,0.6080149 -0.822124,1.439839 -1.055414,1.8485024 -1.073984,1.8813353 -1.747904,3.0615098 -1.855842,3.2499714 -0.1031036,0.1800182 -0.1169396,0.2072536 -0.1120116,0.2204903 0.0031,0.00831 0.1328616,0.2380096 0.2883786,0.5104504 0.155517,0.272442 0.409156,0.716897 0.563643,0.987678 0.154484,0.270779 0.42283,0.74106 0.596323,1.045065 0.173492,0.304005 0.425533,0.745741 0.560091,0.981636 0.134557,0.235895 0.382701,0.670836 0.551431,0.966533 0.168728,0.2957 0.433081,0.759184 0.58745,1.029964 0.15437,0.270781 0.286046,0.501164 0.292613,0.511962 l 0.01195,0.01964 -1.806565,0 -1.8065636,0 -0.0084,-0.01359 z M 0.75678104,10.961775 c 0.031694,-0.05183 0.061294,-0.100084 0.06577,-0.107226 0.00449,-0.0071 0.082214,-0.13531 0.1727508,-0.284821 0.090535,-0.149511 0.18371596,-0.303099 0.20706586,-0.341308 0.02335,-0.03821 0.068756,-0.112963 0.1008973,-0.166122 0.032143,-0.05316 0.097355,-0.1605352 0.1449163,-0.2386126 C 1.4957417,9.7456071 1.5609991,9.6382316 1.5931937,9.585072 1.6253914,9.5319108 1.7318583,9.3565775 1.8297942,9.1954378 2.0011188,8.9135483 2.1291327,8.7027897 2.3288063,8.3738834 2.3802375,8.2891612 2.4447108,8.1831442 2.4720738,8.1382911 2.4994373,8.0934353 2.5646788,7.9860618 2.6170533,7.8996773 2.6694316,7.8132935 2.7346829,7.7059177 2.7620634,7.6610646 2.7894434,7.6162089 2.8547275,7.5088353 2.9071392,7.4224515 2.9931728,7.2806551 3.2226943,6.9027837 3.3368119,6.715065 c 0.02444,-0.040203 0.04444,-0.074872 0.04444,-0.077042 0,-0.00361 -0.04398,-0.081846 -0.21444,-0.3814547 C 3.1327852,6.1967654 3.0417159,6.0363807 2.9644302,5.9001594 2.8871461,5.7639381 2.796091,5.6035544 2.7620853,5.54375 2.7063367,5.4457074 2.6588218,5.36201 2.4945915,5.0725641 2.4663137,5.0227272 2.4099371,4.9235075 2.3693107,4.8520733 2.3286816,4.7806408 2.1982565,4.5509374 2.0794733,4.341623 1.9606906,4.1323081 1.8233487,3.8903728 1.7742695,3.8039882 1.7251927,3.7176044 1.6287234,3.547706 1.5598987,3.4264361 1.4910738,3.3051656 1.4214721,3.1827444 1.4052281,3.1543893 c -0.016244,-0.028355 -0.029537,-0.053501 -0.029537,-0.055879 0,-0.00236 0.7651601,-0.00432 1.7003579,-0.00432 l 1.7003562,0 0.00841,0.013594 c 0.00465,0.00747 0.044528,0.077473 0.088671,0.1555515 0.044144,0.078078 0.1250246,0.2207918 0.1797412,0.3171439 0.054716,0.096351 0.1396179,0.2458625 0.188669,0.3322464 0.049055,0.086384 0.1339662,0.2358949 0.1886965,0.3322453 0.054732,0.096352 0.1859032,0.3274143 0.2914947,0.5134718 0.2104729,0.3708636 0.2711275,0.4776979 0.4047027,0.7128187 0.049077,0.086385 0.1115964,0.1964784 0.1389325,0.2446548 0.2110051,0.3718616 0.3202761,0.5643199 0.4047148,0.7128186 0.05384,0.09469 0.1023898,0.1808751 0.1078823,0.1915216 l 0.00999,0.019359 -0.05055,0.083337 C 6.7099595,6.7687841 6.6334589,6.8946315 6.567758,7.0026128 6.5020572,7.1105924 6.394701,7.2872869 6.3291907,7.3952664 6.2636787,7.5032466 6.1671088,7.6622719 6.1145898,7.7486558 5.9904976,7.9527624 5.8808563,8.1332876 5.7403646,8.364822 5.6396541,8.5307971 5.5833404,8.6234673 5.3897987,8.941722 c -0.027276,0.04485 -0.092519,0.1522294 -0.14498,0.2386133 -0.105321,0.173421 -0.149649,0.2463668 -0.288167,0.4742059 -0.051507,0.084723 -0.1365322,0.2247186 -0.1889406,0.3111033 -0.052405,0.086384 -0.117674,0.1937595 -0.145036,0.2386125 -0.027363,0.04486 -0.1239082,0.203878 -0.2145488,0.353389 -0.090639,0.149511 -0.1959567,0.322807 -0.2340373,0.385104 l -0.069237,0.113265 -1.7028507,0 -1.70285106,0 0.057629,-0.09424 z"
     id="path5822"
     inkscape:connector-curvature="0" />
</svg>
