<?xml version="1.0" encoding="UTF-8" standalone="no"?>
<svg
   xmlns:dc="http://purl.org/dc/elements/1.1/"
   xmlns:cc="http://creativecommons.org/ns#"
   xmlns:rdf="http://www.w3.org/1999/02/22-rdf-syntax-ns#"
   xmlns:svg="http://www.w3.org/2000/svg"
   xmlns="http://www.w3.org/2000/svg"
   xmlns:sodipodi="http://sodipodi.sourceforge.net/DTD/sodipodi-0.dtd"
   xmlns:inkscape="http://www.inkscape.org/namespaces/inkscape"
   viewBox="0 0 16 16"
   width="16px"
   height="16px"
   id="svg2"
   version="1.1"
   inkscape:version="0.91 r13725"
   sodipodi:docname="icon-gulp.svg">
  <metadata
     id="metadata10">
    <rdf:RDF>
      <cc:Work
         rdf:about="">
        <dc:format>image/svg+xml</dc:format>
        <dc:type
           rdf:resource="http://purl.org/dc/dcmitype/StillImage" />
      </cc:Work>
    </rdf:RDF>
  </metadata>
  <defs
     id="defs8" />
  <sodipodi:namedview
     pagecolor="#ffffff"
     bordercolor="#666666"
     borderopacity="1"
     objecttolerance="10"
     gridtolerance="10"
     guidetolerance="10"
     inkscape:pageopacity="0"
     inkscape:pageshadow="2"
     inkscape:window-width="1020"
     inkscape:window-height="729"
     id="namedview6"
     showgrid="false"
     inkscape:zoom="14.75"
     inkscape:cx="-0.50847458"
     inkscape:cy="8"
     inkscape:window-x="0"
     inkscape:window-y="18"
     inkscape:window-maximized="0"
     inkscape:current-layer="svg2" />
  <path
     style="fill:#828282"
     d="m 2.6775511,8 0,-7.655245 2.008471,0 c 1.618399,0 2.008472,0.1047616 2.008472,0.5394176 0,0.4876328 0.05101,0.4840254 0.53134,-0.037593 0.434734,-0.4720951 0.8406541,-0.5355094 2.2325251,-0.3487823 0.9356508,0.1255205 2.1878368,0.5606165 2.7826378,0.9668766 1.024822,0.6999738 1.081452,0.888672 1.081452,3.6034995 0,3.2678391 -0.510003,4.0453278 -2.885739,4.3992298 C 8.617039,9.7384755 8.444559,9.5168442 9.436379,8.182021 9.9201107,7.531003 10.107011,6.981248 9.8821317,6.8708881 9.2331301,6.5523852 7.8645121,4.1915776 7.5145201,2.7868563 7.2209261,1.6084973 7.1793181,1.5707029 7.1402021,2.4468424 c -0.02422,0.5421345 0.5141,1.8725714 1.1962371,2.9565257 l 1.240255,1.9708235 -0.83856,1.1285551 C 8.0473962,9.43237 7.8995762,8.8539837 7.8995762,12.643276 l 0,3.011969 -2.611012,0 -2.6110131,0 z m 2.402534,-5.601709 c -0.746682,0 -0.891043,1.116287 0.08417,1.116287 0.939486,0 0.969509,-1.116287 -0.08417,-1.116287 z"
     id="path3387"
     inkscape:connector-curvature="0"
     sodipodi:nodetypes="ccsssssssssscscssccccccc" />
</svg>
