<?xml version="1.0" encoding="UTF-8" standalone="no"?>
<svg
   xmlns:dc="http://purl.org/dc/elements/1.1/"
   xmlns:cc="http://creativecommons.org/ns#"
   xmlns:rdf="http://www.w3.org/1999/02/22-rdf-syntax-ns#"
   xmlns:svg="http://www.w3.org/2000/svg"
   xmlns="http://www.w3.org/2000/svg"
   xmlns:sodipodi="http://sodipodi.sourceforge.net/DTD/sodipodi-0.dtd"
   xmlns:inkscape="http://www.inkscape.org/namespaces/inkscape"
   viewBox="0 0 16 16"
   width="16px"
   height="16px"
   id="svg2"
   version="1.1"
   inkscape:version="0.91 r13725"
   sodipodi:docname="icon-linkedin.svg">
  <metadata
     id="metadata10">
    <rdf:RDF>
      <cc:Work
         rdf:about="">
        <dc:format>image/svg+xml</dc:format>
        <dc:type
           rdf:resource="http://purl.org/dc/dcmitype/StillImage" />
      </cc:Work>
    </rdf:RDF>
  </metadata>
  <defs
     id="defs8" />
  <sodipodi:namedview
     pagecolor="#ffffff"
     bordercolor="#666666"
     borderopacity="1"
     objecttolerance="10"
     gridtolerance="10"
     guidetolerance="10"
     inkscape:pageopacity="0"
     inkscape:pageshadow="2"
     inkscape:window-width="697"
     inkscape:window-height="729"
     id="namedview6"
     showgrid="false"
     inkscape:zoom="14.75"
     inkscape:cx="-0.50847458"
     inkscape:cy="8"
     inkscape:window-x="0"
     inkscape:window-y="18"
     inkscape:window-maximized="0"
     inkscape:current-layer="svg2" />
  <path
     style="fill:#828282"
     d="m 1.0809399,14.919055 -0.54704007,-0.54704 0,-6.37202 0,-6.37202 0.54704007,-0.54704 0.54704,-0.54704 6.37202,0 6.3720201,0 0.54704,0.54704 0.54704,0.54704 0,6.37202 0,6.37202 -0.54704,0.54704 -0.54704,0.54705 -6.3720201,0 -6.37202,0 -0.54704,-0.54705 z m 3.91034,-5.02467 0,-3.34303 -1.11435,0 -1.11434,0 0,3.34303 0,3.34303 1.11434,0 1.11435,0 0,-3.34303 z m 3.78876,1.12698 c 0,-2.03736 0.0399,-2.24403 0.49533,-2.56299 0.6374403,-0.44648 0.7510601,-0.43776 1.2876201,0.0988 0.38318,0.38317 0.44574,0.74289 0.44574,2.56299 l 0,2.11725 1.11434,0 1.11435,0 0,-2.47289 c 0,-1.8891 -0.0861,-2.61856 -0.36451,-3.08995 -0.77318,-1.30889 -2.43338,-1.72762 -3.5056401,-0.88418 -0.48678,0.38291 -0.58723,0.40197 -0.58723,0.11144 0,-0.272 -0.24953,-0.35048 -1.11434,-0.35048 l -1.11434,0 0,3.34303 0,3.34303 1.11434,0 1.11434,0 0,-2.21605 z m -3.97347,-6.17607 c 0.50748,-0.45926 0.52585,-1.35975 0.0387,-1.89801 -0.7653,-0.84565 -2.30558,-0.25046 -2.30558,0.89092 0,1.19212 1.38331,1.80669 2.26685,1.00709 z"
     id="path3344"
     inkscape:connector-curvature="0" />
</svg>
